<?xml version="1.0" encoding="utf-8"?>
<!-- Generator: Adobe Illustrator 23.1.1, SVG Export Plug-In . SVG Version: 6.00 Build 0)  -->
<svg version="1.1" id="Layer_1" xmlns="http://www.w3.org/2000/svg" xmlns:xlink="http://www.w3.org/1999/xlink" x="0px" y="0px"
	 viewBox="0 0 1000 1000" style="enable-background:new 0 0 1000 1000;" xml:space="preserve">
<style type="text/css">
	.st0{filter:url(#Adobe_OpacityMaskFilter);}
	.st1{fill:#FDFEFF;}
	.st2{mask:url(#SVGID_1_);fill:#101010;}
</style>
<defs>
	<filter id="Adobe_OpacityMaskFilter" filterUnits="userSpaceOnUse" x="195.4" y="27.7" width="608.8" height="943.6">
		
			<feColorMatrix  type="matrix" values="-1 0 0 0 1  0 -1 0 0 1  0 0 -1 0 1  0 0 0 1 0" color-interpolation-filters="sRGB" result="source"/>
		<feFlood  style="flood-color:white;flood-opacity:1" result="back"/>
		<feBlend  in="source" in2="back" mode="normal"/>
	</filter>
</defs>
<mask maskUnits="userSpaceOnUse" x="195.4" y="27.7" width="608.8" height="943.6" id="SVGID_1_">
	<g class="st0">
		<circle class="st1" cx="497.1" cy="594.2" r="148.8"/>
	</g>
</mask>
<path class="st2" d="M804.2,594.2c0-167.8-136.6-304.4-304.4-304.4c-48.9,0-95.1,11.6-136.1,32.2c-18.9,10-48.7,27.2-65.7,44.3
	c10.2-14.9,29.2-31,50.8-45.2V129.8c0-56.4-45.7-102.1-102.1-102.1h-50.8V575c-0.4,6.4-0.6,12.8-0.6,19.2
	c0,99.5,48,188.1,122.1,243.6L432,943.4c37.2,37.2,97.5,37.2,134.7-0.1l110.5-102C754.1,786,804.2,695.8,804.2,594.2z"/>
</svg>
