<?xml version="1.0" encoding="utf-8"?>
<!-- Generator: Adobe Illustrator 23.1.1, SVG Export Plug-In . SVG Version: 6.00 Build 0)  -->
<svg version="1.1" id="Layer_1" xmlns="http://www.w3.org/2000/svg" xmlns:xlink="http://www.w3.org/1999/xlink" x="0px" y="0px"
	 viewBox="0 0 1459.8 198.1" style="enable-background:new 0 0 1459.8 198.1;" xml:space="preserve">
<style type="text/css">
	.st0{fill:#FFFFFF;}
</style>
<g>
	<path class="st0" d="M44.1,138.2V81.9H30.2V61.1h13.9V27.9h32.5v33.1h19v20.9h-19V131c0,8.2,4.5,10.2,11.7,10.2
		c2.9,0,6.1-0.2,7.4-0.2v24.3c-2.9,0.8-9.2,1.6-18.2,1.6C58,167,44.1,160.7,44.1,138.2z"/>
	<path class="st0" d="M107.7,19.5H141v54.4h0.6c7.6-10,16.6-16,31.1-16c22.9,0,36.4,16.4,36.4,39.7v68.1h-33.3v-61.3
		c0-11-5.5-18.6-16.4-18.6c-11,0-18.4,9.2-18.4,22.1v57.9h-33.3V19.5z"/>
	<path class="st0" d="M219.5,113.2c0-31.3,21.9-55.2,53.8-55.2c14.9,0,26.8,4.9,35.8,13.1c12.5,11.5,18.6,29.7,18.4,50.9h-75.3
		c2,14.1,9.8,22.9,23.5,22.9c8.8,0,14.5-3.9,17.4-10.4h32.5c-2.2,9.4-8.4,18.4-17.6,24.7c-8.8,6.1-19.4,9.6-32.7,9.6
		C240.8,168.8,219.5,144.9,219.5,113.2z M293.8,102.2c-1.2-12.5-9-20.5-19.8-20.5c-12.7,0-19.2,8-21.5,20.5H293.8z"/>
	<path class="st0" d="M402.8,152.5h-0.4v13.3h-31.9V19.5h33.3v53.4h0.6c6.5-9,15.5-14.9,29.9-14.9c27.2,0,44.8,23.9,44.8,55.4
		c0,34.8-17.6,55.6-44.6,55.6C420.5,169,409.3,163.3,402.8,152.5z M445.3,113.2c0-18-7.2-29.9-20.7-29.9
		c-14.7,0-21.9,12.9-21.9,30.1c0,17.4,8.6,29.2,22.3,29.2C438.1,142.7,445.3,131.4,445.3,113.2z"/>
	<path class="st0" d="M485.6,113.2c0-31.3,21.9-55.2,53.8-55.2c14.9,0,26.8,4.9,35.8,13.1c12.5,11.5,18.6,29.7,18.4,50.9h-75.3
		c2,14.1,9.8,22.9,23.5,22.9c8.8,0,14.5-3.9,17.4-10.4h32.5c-2.2,9.4-8.4,18.4-17.6,24.7c-8.8,6.1-19.4,9.6-32.7,9.6
		C506.8,168.8,485.6,144.9,485.6,113.2z M559.8,102.2c-1.2-12.5-9-20.5-19.8-20.5c-12.7,0-19.2,8-21.5,20.5H559.8z"/>
	<path class="st0" d="M599.9,136.5c0-23.1,18.4-30.1,40.1-32.9c19.6-2.5,26.6-4.5,26.6-11.7c0-6.7-4.3-11.2-14.3-11.2
		c-10.6,0-16,4.7-17,13.5h-30.7c0.8-19.4,15.7-36,47.4-36c15.7,0,26.4,2.9,33.9,8.6c9,6.5,13.3,16.8,13.3,29.9v52.8
		c0,8.4,0.8,13.1,3.7,14.9v1.4h-32.3c-1.6-2.2-2.7-6.3-3.5-11.7h-0.4c-6.1,8.8-15.3,14.3-31.1,14.3
		C614.8,168.4,599.9,157.2,599.9,136.5z M667.4,128.3v-12.5c-4.3,2.2-10.4,3.9-17.2,5.5c-12.9,2.9-18.2,6.1-18.2,14.1
		c0,8.4,6.1,11.7,14.3,11.7C658.8,147.2,667.4,139.6,667.4,128.3z"/>
	<path class="st0" d="M721.6,138.2V81.9h-13.9V61.1h13.9V27.9h32.5v33.1h19v20.9h-19V131c0,8.2,4.5,10.2,11.7,10.2
		c2.9,0,6.1-0.2,7.4-0.2v24.3c-2.9,0.8-9.2,1.6-18.2,1.6C735.5,167,721.6,160.7,721.6,138.2z"/>
	<path class="st0" d="M779.4,113.2c0-31.3,21.9-55.2,53.8-55.2c14.9,0,26.8,4.9,35.8,13.1c12.5,11.5,18.6,29.7,18.4,50.9h-75.3
		c2,14.1,9.8,22.9,23.5,22.9c8.8,0,14.5-3.9,17.4-10.4h32.5c-2.2,9.4-8.4,18.4-17.6,24.7c-8.8,6.1-19.4,9.6-32.7,9.6
		C800.7,168.8,779.4,144.9,779.4,113.2z M853.7,102.2c-1.2-12.5-9-20.5-19.8-20.5c-12.7,0-19.2,8-21.5,20.5H853.7z"/>
	<path class="st0" d="M898.7,61.1h32.1v14.3h0.6c7.8-11.2,17.8-17.4,32.3-17.4c22.9,0,36.4,16.4,36.4,39.7v68.1h-33.3v-61.3
		c0-11-5.5-18.6-16.4-18.6c-11,0-18.4,9.2-18.4,22.1v57.9h-33.3V61.1z"/>
	<path class="st0" d="M1055.1,138.2V81.9h-13.9V61.1h13.9V27.9h32.5v33.1h19v20.9h-19V131c0,8.2,4.5,10.2,11.7,10.2
		c2.9,0,6.1-0.2,7.4-0.2v24.3c-2.9,0.8-9.2,1.6-18.2,1.6C1069,167,1055.1,160.7,1055.1,138.2z"/>
	<path class="st0" d="M1118.7,61.1h31.9v16.4h0.6c7.4-12.5,16-18,28.6-18c3.1,0,5.1,0.2,6.5,0.8v28.6h-0.8
		c-20.5-2.9-33.5,7.2-33.5,29.9v47h-33.3V61.1z"/>
	<path class="st0" d="M1189,136.5c0-23.1,18.4-30.1,40.1-32.9c19.6-2.5,26.6-4.5,26.6-11.7c0-6.7-4.3-11.2-14.3-11.2
		c-10.6,0-16,4.7-17,13.5h-30.7c0.8-19.4,15.7-36,47.4-36c15.7,0,26.4,2.9,33.9,8.6c9,6.5,13.3,16.8,13.3,29.9v52.8
		c0,8.4,0.8,13.1,3.7,14.9v1.4h-32.3c-1.6-2.2-2.7-6.3-3.5-11.7h-0.4c-6.1,8.8-15.3,14.3-31.1,14.3
		C1204,168.4,1189,157.2,1189,136.5z M1256.5,128.3v-12.5c-4.3,2.2-10.4,3.9-17.2,5.5c-12.9,2.9-18.2,6.1-18.2,14.1
		c0,8.4,6.1,11.7,14.3,11.7C1247.9,147.2,1256.5,139.6,1256.5,128.3z"/>
	<path class="st0" d="M1304.6,19.5h33.3v27h-33.3V19.5z M1304.6,61.1h33.3v104.7h-33.3V61.1z"/>
	<path class="st0" d="M1354.1,19.5h33.7v146.2h-33.7V19.5z"/>
	<path class="st0" d="M1402.5,131.4h35v34.4h-35V131.4z"/>
</g>
</svg>
